# xmcd
#
# Track frame offsets:
#	150
#	19665
#	43590
#	65812
#	81955
#	104247
#	126910
#	149535
#	171112
#	191765
#
# Disc length: 2796 seconds
#
# Revision: 1
# Processed by: cddbd v1.5.2PL0 Copyright (c) Steve Scherf et al.
# Submitted via: EasyCDDAExtractor 15.3.0.1
#
DISCID=980aea0a
DTITLE=Domingo Quiñones - Pintando Lunas
DYEAR=1992
DGENRE=Latin
TTITLE0=Llegar A Ti
TTITLE1=No Hace Falta
TTITLE2=Pintando Lunas
TTITLE3=Si Regresaras
TTITLE4=No Me Dejes De Amar
TTITLE5=Tu Pecho Mi Almohada
TTITLE6=Enseñame
TTITLE7=Juntos
TTITLE8=Crazy For You
TTITLE9=Dos Amigos
EXTD=
EXTT0=
EXTT1=
EXTT2=
EXTT3=
EXTT4=
EXTT5=
EXTT6=
EXTT7=
EXTT8=
EXTT9=
PLAYORDER=
